  0
SECTION
  2
HEADER
  9
$ACADVER
  1
AC1018
  9
$ACADMAINTVER
 70
     0
  9
$DWGCODEPAGE
  3
ANSI_1252
  9
$EXTMIN
 10
171727.249635818
 20
386367.873927738
 30
0.0
  9
$EXTMAX
 10
176599.484559277
 20
388559.113129761
 30
0.0
  9
$LIMMIN
 10
0.0
 20
0.0
  9
$LIMMAX
 10
12.0
 20
9.0
  9
$ORTHOMODE
 70
     0
  9
$REGENMODE
 70
     1
  9
$FILLMODE
 70
     1
  9
$QTEXTMODE
 70
     0
  9
$MIRRTEXT
 70
     1
  9
$LTSCALE
 40
1.0
  9
$ATTMODE
 70
     1
  9
$TEXTSIZE
 40
0.2
  9
$TRACEWID
 40
0.05
  9
$TEXTSTYLE
  7
Standard
  9
$CLAYER
  8
0
  9
$CELTYPE
  6
ByLayer
  9
$CECOLOR
 62
   256
  9
$CELTSCALE
 40
1.0
  9
$DISPSILH
 70
     0
  9
$LUNITS
 70
     2
  9
$LUPREC
 70
     4
  9
$SKETCHINC
 40
0.1
  9
$FILLETRAD
 40
0.5
  9
$AUNITS
 70
     0
  9
$AUPREC
 70
     0
  9
$MENU
  1
.
  9
$ELEVATION
 40
0.0
  9
$PELEVATION
 40
0.0
  9
$THICKNESS
 40
0.0
  9
$LIMCHECK
 70
     0
  9
$CHAMFERA
 40
0.5
  9
$CHAMFERB
 40
0.5
  9
$CHAMFERC
 40
1.0
  9
$CHAMFERD
 40
0.0
  9
$SKPOLY
 70
     0
  9
$ANGBASE
 50
0.0
  9
$ANGDIR
 70
     0
  9
$PDMODE
 70
     0
  9
$PDSIZE
 40
0.0
  9
$PLINEWID
 40
0.0
  9
$SPLFRAME
 70
     0
  9
$SPLINETYPE
 70
     6
  9
$SPLINESEGS
 70
     8
  9
$HANDSEED
  5
00020064
  9
$SURFTAB1
 70
     6
  9
$SURFTAB2
 70
     6
  9
$SURFTYPE
 70
     6
  9
$SURFU
 70
     6
  9
$SURFV
 70
     6
  9
$UCSBASE
  2

  9
$UCSNAME
  2

  9
$UCSORG
 10
0.0
 20
0.0
 30
0.0
  9
$UCSXDIR
 10
1.0
 20
0.0
 30
0.0
  9
$UCSYDIR
 10
0.0
 20
1.0
 30
0.0
  9
$UCSORTHOREF
  2

  9
$UCSORTHOVIEW
 70
     0
  9
$UCSORGTOP
 10
0.0
 20
0.0
 30
0.0
  9
$UCSORGBOTTOM
 10
0.0
 20
0.0
 30
0.0
  9
$UCSORGLEFT
 10
0.0
 20
0.0
 30
0.0
  9
$UCSORGRIGHT
 10
0.0
 20
0.0
 30
0.0
  9
$UCSORGFRONT
 10
0.0
 20
0.0
 30
0.0
  9
$UCSORGBACK
 10
0.0
 20
0.0
 30
0.0
  9
$PUCSBASE
  2

  9
$PUCSNAME
  2

  9
$PUCSORG
 10
0.0
 20
0.0
 30
0.0
  9
$PUCSXDIR
 10
1.0
 20
0.0
 30
0.0
  9
$PUCSYDIR
 10
0.0
 20
1.0
 30
0.0
  9
$PUCSORTHOREF
  2

  9
$PUCSORTHOVIEW
 70
     0
  9
$PUCSORGTOP
 10
0.0
 20
0.0
 30
0.0
  9
$PUCSORGBOTTOM
 10
0.0
 20
0.0
 30
0.0
  9
$PUCSORGLEFT
 10
0.0
 20
0.0
 30
0.0
  9
$PUCSORGRIGHT
 10
0.0
 20
0.0
 30
0.0
  9
$PUCSORGFRONT
 10
0.0
 20
0.0
 30
0.0
  9
$PUCSORGBACK
 10
0.0
 20
0.0
 30
0.0
  9
$WORLDVIEW
 70
     1
  9
$SHADEDGE
 70
     3
  9
$SHADEDIF
 70
    70
  9
$TILEMODE
 70
     1
  9
$MAXACTVP
 70
    64
  9
$PINSBASE
 10
0.0
 20
0.0
 30
0.0
  9
$PLIMCHECK
 70
     0
  9
$PEXTMIN
 10
1.000000000000000E+20
 20
1.000000000000000E+20
 30
1.000000000000000E+20
  9
$PEXTMAX
 10
-1.000000000000000E+20
 20
-1.000000000000000E+20
 30
-1.000000000000000E+20
  9
$PLIMMIN
 10
0.0
 20
0.0
  9
$PLIMMAX
 10
12.0
 20
9.0
  9
$UNITMODE
 70
     0
  9
$VISRETAIN
 70
     1
  9
$PLINEGEN
 70
     0
  9
$PSLTSCALE
 70
     1
  9
$TREEDEPTH
 70
  3020
  9
$CMLSTYLE
  2
Standard
  9
$CMLJUST
 70
     0
  9
$CMLSCALE
 40
1.0
  9
$PROXYGRAPHICS
 70
     1
  9
$MEASUREMENT
 70
     0
  9
$CELWEIGHT
370
    -1
  9
$ENDCAPS
280
     0
  9
$JOINSTYLE
280
     0
  9
$LWDISPLAY
290
     0
  9
$INSUNITS
 70
     1
  9
$HYPERLINKBASE
  1

  9
$STYLESHEET
  1

  9
$XEDIT
290
     1
  9
$CEPSNTYPE
380
     0
  9
$PSTYLEMODE
290
     1
  9
$EXTNAMES
290
     1
  9
$PSVPSCALE
 40
0.0
  9
$OLESTARTUP
290
     0
  9
$SORTENTS
280
   127
  9
$INDEXCTL
280
     0
  9
$HIDETEXT
280
     1
  9
$XCLIPFRAME
290
     0
  9
$HALOGAP
280
     0
  9
$OBSCOLOR
 70
   257
  9
$OBSLTYPE
280
     0
  9
$INTERSECTIONDISPLAY
280
     0
  9
$INTERSECTIONCOLOR
 70
   257
  9
$DIMASSOC
280
     2
  9
$PROJECTNAME
  1

  0
ENDSEC
  0
SECTION
  2
CLASSES
  0
CLASS
  1
ACDBDICTIONARYWDFLT
  2
AcDbDictionaryWithDefault
  3
ObjectDBX Classes
 90
        0
 91
        4
280
     0
281
     0
  0
ENDSEC
  0
SECTION
  2
TABLES
  0
TABLE
  2
VPORT
  5
8
330
0
100
AcDbSymbolTable
 70
     1
  0
VPORT
  5
29
330
8
100
AcDbSymbolTableRecord
100
AcDbViewportTableRecord
  2
*Active
 70
     0
 10
0.0
 20
0.0
 11
1.0
 21
1.0
 12
80.25
 22
106.4409457059851
 13
0.0
 23
0.0
 14
0.5
 24
0.5
 15
0.5
 25
0.5
 16
0.0
 26
0.0
 36
1.0
 17
0.0
 27
0.0
 37
0.0
 40
113.3818914119703
 41
0.8863849310366128
 42
50.0
 43
0.0
 44
0.0
 50
0.0
 51
0.0
 71
     0
 72
  1000
 73
     1
 74
     3
 75
     0
 76
     0
 77
     0
 78
     0
281
     0
 65
     1
110
0.0
120
0.0
130
0.0
111
1.0
121
0.0
131
0.0
112
0.0
122
1.0
132
0.0
 79
     0
146
0.0
  0
ENDTAB
  0
TABLE
  2
LTYPE
  5
5
330
0
100
AcDbSymbolTable
 70
     1
  0
LTYPE
  5
14
330
5
100
AcDbSymbolTableRecord
100
AcDbLinetypeTableRecord
  2
ByBlock
 70
     0
  3

 72
    65
 73
     0
 40
0.0
  0
LTYPE
  5
15
330
5
100
AcDbSymbolTableRecord
100
AcDbLinetypeTableRecord
  2
ByLayer
 70
     0
  3

 72
    65
 73
     0
 40
0.0
  0
LTYPE
  5
16
330
5
100
AcDbSymbolTableRecord
100
AcDbLinetypeTableRecord
  2
Continuous
 70
     0
  3
Solid line
 72
    65
 73
     0
 40
0.0
  0
ENDTAB
  0
TABLE
  2
LAYER
  5
2
330
0
100
AcDbSymbolTable
 70
     1
  0
LAYER
  5
10
330
2
100
AcDbSymbolTableRecord
100
AcDbLayerTableRecord
  2
0
 70
     0
 62
     7
  6
Continuous
370
    -3
390
F
  0
ENDTAB
  0
TABLE
  2
STYLE
  5
3
330
0
100
AcDbSymbolTable
 70
     1
  0
STYLE
  5
11
330
3
100
AcDbSymbolTableRecord
100
AcDbTextStyleTableRecord
  2
Standard
 70
     0
 40
0.0
 41
1.0
 50
0.0
 71
     0
 42
0.2
  3
txt
  4

  0
ENDTAB
  0
TABLE
  2
VIEW
  5
6
330
0
100
AcDbSymbolTable
 70
     0
  0
ENDTAB
  0
TABLE
  2
UCS
  5
7
330
0
100
AcDbSymbolTable
 70
     0
  0
ENDTAB
  0
TABLE
  2
APPID
  5
9
330
0
100
AcDbSymbolTable
 70
     1
  0
APPID
  5
12
330
9
100
AcDbSymbolTableRecord
100
AcDbRegAppTableRecord
  2
ACAD
 70
     0
  0
ENDTAB
  0
TABLE
  2
DIMSTYLE
  5
A
330
0
100
AcDbSymbolTable
 70
     1
100
AcDbDimStyleTable
  0
DIMSTYLE
105
27
330
A
100
AcDbSymbolTableRecord
100
AcDbDimStyleTableRecord
  2
Standard
 70
     0
340
11
  0
ENDTAB
  0
TABLE
  2
BLOCK_RECORD
  5
1
330
0
100
AcDbSymbolTable
 70
     1
  0
BLOCK_RECORD
  5
1F
330
1
100
AcDbSymbolTableRecord
100
AcDbBlockTableRecord
  2
*Model_Space
340
22
  0
BLOCK_RECORD
  5
1B
330
1
100
AcDbSymbolTableRecord
100
AcDbBlockTableRecord
  2
*Paper_Space
340
1E
  0
ENDTAB
  0
ENDSEC
  0
SECTION
  2
BLOCKS
  0
BLOCK
  5
20
330
1F
100
AcDbEntity
  8
0
100
AcDbBlockBegin
  2
*Model_Space
 70
     0
 10
0.0
 20
0.0
 30
0.0
  3
*Model_Space
  1

  0
ENDBLK
  5
21
330
1F
100
AcDbEntity
  8
0
100
AcDbBlockEnd
  0
BLOCK
  5
1C
330
1B
100
AcDbEntity
 67
     1
  8
0
100
AcDbBlockBegin
  2
*Paper_Space
 70
     0
 10
0.0
 20
0.0
 30
0.0
  3
*Paper_Space
  1

  0
ENDBLK
  5
1D
330
1B
100
AcDbEntity
 67
     1
  8
0
100
AcDbBlockEnd
  0
ENDSEC
  0
SECTION
  2
ENTITIES
  0
POINT
  5
20000
100
AcDbEntity
  8
0
100
AcDbPoint
 10
175416.727920979
 20
386784.231623855
 30
6.406
  0
POINT
  5
20001
100
AcDbEntity
  8
0
100
AcDbPoint
 10
174378.446981966
 20
387954.36696729
 30
6.671
  0
POINT
  5
20002
100
AcDbEntity
  8
0
100
AcDbPoint
 10
172061.087965091
 20
387253.931406806
 30
6.479
  0
POINT
  5
20003
100
AcDbEntity
  8
0
100
AcDbPoint
 10
173468.865432452
 20
386444.889189859
 30
6.705
  0
POINT
  5
20004
100
AcDbEntity
  8
0
100
AcDbPoint
 10
175757.301840482
 20
386800.994465218
 30
6.453
  0
POINT
  5
20005
100
AcDbEntity
  8
0
100
AcDbPoint
 10
175820.135154113
 20
386660.890387112
 30
6.313
  0
POINT
  5
20006
100
AcDbEntity
  8
0
100
AcDbPoint
 10
176162.744894431
 20
386665.178097849
 30
6.215
  0
POINT
  5
20007
100
AcDbEntity
  8
0
100
AcDbPoint
 10
176347.777320002
 20
386728.357719357
 30
6.603
  0
POINT
  5
20008
100
AcDbEntity
  8
0
100
AcDbPoint
 10
176369.888357219
 20
386912.670824868
 30
6.236
  0
POINT
  5
20009
100
AcDbEntity
  8
0
100
AcDbPoint
 10
176351.602262045
 20
387044.399144922
 30
6.435
  0
POINT
  5
2000A
100
AcDbEntity
  8
0
100
AcDbPoint
 10
176402.92658942
 20
387297.00533395
 30
6.582
  0
POINT
  5
2000B
100
AcDbEntity
  8
0
100
AcDbPoint
 10
176197.935894356
 20
387355.244978383
 30
6.334
  0
POINT
  5
2000C
100
AcDbEntity
  8
0
100
AcDbPoint
 10
175883.538074433
 20
387460.458692675
 30
6.334
  0
POINT
  5
2000D
100
AcDbEntity
  8
0
100
AcDbPoint
 10
175705.839287309
 20
387499.129758576
 30
6.398
  0
POINT
  5
2000E
100
AcDbEntity
  8
0
100
AcDbPoint
 10
175560.149820137
 20
387542.314362476
 30
6.356
  0
POINT
  5
2000F
100
AcDbEntity
  8
0
100
AcDbPoint
 10
175500.194754526
 20
387568.239498231
 30
6.383
  0
POINT
  5
20010
100
AcDbEntity
  8
0
100
AcDbPoint
 10
174960.916489806
 20
387758.142372779
 30
8.023
  0
POINT
  5
20011
100
AcDbEntity
  8
0
100
AcDbPoint
 10
174814.216119195
 20
387808.129045654
 30
8.493
  0
POINT
  5
20012
100
AcDbEntity
  8
0
100
AcDbPoint
 10
174606.799596884
 20
387878.939825741
 30
6.579
  0
POINT
  5
20013
100
AcDbEntity
  8
0
100
AcDbPoint
 10
174134.348763497
 20
388192.048633024
 30
6.291
  0
POINT
  5
20014
100
AcDbEntity
  8
0
100
AcDbPoint
 10
174083.163157482
 20
388243.210831613
 30
6.269
  0
POINT
  5
20015
100
AcDbEntity
  8
0
100
AcDbPoint
 10
173843.213455083
 20
388383.339663917
 30
6.223
  0
POINT
  5
20016
100
AcDbEntity
  8
0
100
AcDbPoint
 10
173668.708668203
 20
388485.068176895
 30
6.34
  0
POINT
  5
20017
100
AcDbEntity
  8
0
100
AcDbPoint
 10
173586.482101091
 20
388490.031492995
 30
6.405
  0
POINT
  5
20018
100
AcDbEntity
  8
0
100
AcDbPoint
 10
173399.110562623
 20
388292.310841573
 30
6.333
  0
POINT
  5
20019
100
AcDbEntity
  8
0
100
AcDbPoint
 10
173461.824288871
 20
387985.433445885
 30
6.269
  0
POINT
  5
2001A
100
AcDbEntity
  8
0
100
AcDbPoint
 10
173446.776874599
 20
387579.86847979
 30
6.364
  0
POINT
  5
2001B
100
AcDbEntity
  8
0
100
AcDbPoint
 10
173208.244572238
 20
388260.43255315
 30
5.857
  0
POINT
  5
2001C
100
AcDbEntity
  8
0
100
AcDbPoint
 10
173026.062044684
 20
388253.992330426
 30
6.01
  0
POINT
  5
2001D
100
AcDbEntity
  8
0
100
AcDbPoint
 10
172865.717590499
 20
388241.265718811
 30
6.194
  0
POINT
  5
2001E
100
AcDbEntity
  8
0
100
AcDbPoint
 10
172882.427430636
 20
388351.365328955
 30
6.168
  0
POINT
  5
2001F
100
AcDbEntity
  8
0
100
AcDbPoint
 10
172769.267283097
 20
388334.58295285
 30
6.347
  0
POINT
  5
20020
100
AcDbEntity
  8
0
100
AcDbPoint
 10
172515.663164465
 20
388326.177822435
 30
6.357
  0
POINT
  5
20021
100
AcDbEntity
  8
0
100
AcDbPoint
 10
172364.203897379
 20
388321.055132377
 30
6.483
  0
POINT
  5
20022
100
AcDbEntity
  8
0
100
AcDbPoint
 10
172214.644637339
 20
388315.435408717
 30
6.406
  0
POINT
  5
20023
100
AcDbEntity
  8
0
100
AcDbPoint
 10
172086.941371124
 20
388105.03972762
 30
6.568
  0
POINT
  5
20024
100
AcDbEntity
  8
0
100
AcDbPoint
 10
172070.131308565
 20
387916.146496065
 30
6.175
  0
POINT
  5
20025
100
AcDbEntity
  8
0
100
AcDbPoint
 10
172095.627641942
 20
387731.380641119
 30
6.208
  0
POINT
  5
20026
100
AcDbEntity
  8
0
100
AcDbPoint
 10
172130.16748591
 20
387446.02285198
 30
6.567
  0
POINT
  5
20027
100
AcDbEntity
  8
0
100
AcDbPoint
 10
172035.798594742
 20
387371.773729361
 30
6.778
  0
POINT
  5
20028
100
AcDbEntity
  8
0
100
AcDbPoint
 10
172046.145706098
 20
387051.350039436
 30
6.739
  0
POINT
  5
20029
100
AcDbEntity
  8
0
100
AcDbPoint
 10
172073.805667376
 20
386841.437953945
 30
6.568
  0
POINT
  5
2002A
100
AcDbEntity
  8
0
100
AcDbPoint
 10
172064.806664779
 20
386523.369584042
 30
6.656
  0
POINT
  5
2002B
100
AcDbEntity
  8
0
100
AcDbPoint
 10
172110.94453083
 20
386426.943108162
 30
6.81
  0
POINT
  5
2002C
100
AcDbEntity
  8
0
100
AcDbPoint
 10
172354.225629266
 20
386439.474435098
 30
6.601
  0
POINT
  5
2002D
100
AcDbEntity
  8
0
100
AcDbPoint
 10
172656.992988449
 20
386438.829735147
 30
6.393
  0
POINT
  5
2002E
100
AcDbEntity
  8
0
100
AcDbPoint
 10
172909.58372689
 20
386423.509697017
 30
6.588
  0
POINT
  5
2002F
100
AcDbEntity
  8
0
100
AcDbPoint
 10
173338.342768261
 20
386467.859395769
 30
6.785
  0
POINT
  5
20030
100
AcDbEntity
  8
0
100
AcDbPoint
 10
173676.711572646
 20
386478.091226601
 30
6.771
  0
POINT
  5
20031
100
AcDbEntity
  8
0
100
AcDbPoint
 10
173934.128262801
 20
386521.773576187
 30
6.764
  0
POINT
  5
20032
100
AcDbEntity
  8
0
100
AcDbPoint
 10
174177.622695811
 20
386555.915066053
 30
6.607
  0
POINT
  5
20033
100
AcDbEntity
  8
0
100
AcDbPoint
 10
174346.136073463
 20
386559.832481285
 30
6.074
  0
POINT
  5
20034
100
AcDbEntity
  8
0
100
AcDbPoint
 10
174571.986187996
 20
386582.370152757
 30
6.267
  0
POINT
  5
20035
100
AcDbEntity
  8
0
100
AcDbPoint
 10
174885.918520283
 20
386639.036724729
 30
6.149
  0
POINT
  5
20036
100
AcDbEntity
  8
0
100
AcDbPoint
 10
174990.980629989
 20
386657.65223985
 30
6.222
  0
POINT
  5
20037
100
AcDbEntity
  8
0
100
AcDbPoint
 10
175063.698472995
 20
386804.134263476
 30
6.108
  0
POINT
  5
20038
100
AcDbEntity
  8
0
100
AcDbPoint
 10
174918.495214512
 20
386924.911469169
 30
6.11
  0
POINT
  5
20039
100
AcDbEntity
  8
0
100
AcDbPoint
 10
174848.905749239
 20
387445.008645764
 30
7.786
  0
POINT
  5
2003A
100
AcDbEntity
  8
0
100
AcDbPoint
 10
174978.40321779
 20
387216.886837682
 30
6.196
  0
POINT
  5
2003B
100
AcDbEntity
  8
0
100
AcDbPoint
 10
175344.576502724
 20
386793.576818073
 30
6.199
  0
POINT
  5
2003C
100
AcDbEntity
  8
0
100
AcDbPoint
 10
175417.66078196
 20
386710.440028775
 30
6.487
  0
POINT
  5
2003D
100
AcDbEntity
  8
0
100
AcDbPoint
 10
175935.557083123
 20
387241.85716396
 30
6.64
  0
POINT
  5
2003E
100
AcDbEntity
  8
0
100
AcDbPoint
 10
175714.170405485
 20
387245.160630094
 30
5.893
  0
POINT
  5
2003F
100
AcDbEntity
  8
0
100
AcDbPoint
 10
175590.948007046
 20
387410.160843487
 30
5.983
  0
POINT
  5
20040
100
AcDbEntity
  8
0
100
AcDbPoint
 10
175482.389178857
 20
387475.799047038
 30
6.29
  0
POINT
  5
20041
100
AcDbEntity
  8
0
100
AcDbPoint
 10
175373.916462958
 20
387484.276799168
 30
5.808
  0
POINT
  5
20042
100
AcDbEntity
  8
0
100
AcDbPoint
 10
175394.442646607
 20
387228.342465256
 30
6.001
  0
POINT
  5
20043
100
AcDbEntity
  8
0
100
AcDbPoint
 10
175176.464634057
 20
387465.885721969
 30
6.279
  0
POINT
  5
20044
100
AcDbEntity
  8
0
100
AcDbPoint
 10
174994.636854165
 20
387442.800364731
 30
7.043
  0
POINT
  5
20045
100
AcDbEntity
  8
0
100
AcDbPoint
 10
174563.829732809
 20
387458.69118115
 30
6.193
  0
POINT
  5
20046
100
AcDbEntity
  8
0
100
AcDbPoint
 10
174556.045645243
 20
387328.20227392
 30
6.22
  0
POINT
  5
20047
100
AcDbEntity
  8
0
100
AcDbPoint
 10
174198.211190411
 20
387350.319004581
 30
5.919
  0
POINT
  5
20048
100
AcDbEntity
  8
0
100
AcDbPoint
 10
174199.137091417
 20
387472.270951365
 30
6.026
  0
POINT
  5
20049
100
AcDbEntity
  8
0
100
AcDbPoint
 10
172905.602382652
 20
387692.334766157
 30
6.531
  0
POINT
  5
2004A
100
AcDbEntity
  8
0
100
AcDbPoint
 10
172899.811054533
 20
387867.408237898
 30
6.359
  0
POINT
  5
2004B
100
AcDbEntity
  8
0
100
AcDbPoint
 10
176599.484559277
 20
386681.756441311
 30
8.179
  0
POINT
  5
2004C
100
AcDbEntity
  8
0
100
AcDbPoint
 10
176550.133633298
 20
386646.94793471
 30
5.486
  0
POINT
  5
2004D
100
AcDbEntity
  8
0
100
AcDbPoint
 10
175932.259680752
 20
386638.464468839
 30
6.833
  0
POINT
  5
2004E
100
AcDbEntity
  8
0
100
AcDbPoint
 10
175846.695016786
 20
386638.709800063
 30
6.446
  0
POINT
  5
2004F
100
AcDbEntity
  8
0
100
AcDbPoint
 10
175594.363148453
 20
386645.226771094
 30
6.726
  0
POINT
  5
20050
100
AcDbEntity
  8
0
100
AcDbPoint
 10
175527.362672199
 20
386648.238835501
 30
7
  0
POINT
  5
20051
100
AcDbEntity
  8
0
100
AcDbPoint
 10
175041.768067549
 20
386660.285471917
 30
6.295
  0
POINT
  5
20052
100
AcDbEntity
  8
0
100
AcDbPoint
 10
174552.348728105
 20
386562.631302228
 30
6.704
  0
POINT
  5
20053
100
AcDbEntity
  8
0
100
AcDbPoint
 10
174446.352603506
 20
386543.535797341
 30
6.419
  0
POINT
  5
20054
100
AcDbEntity
  8
0
100
AcDbPoint
 10
174247.881511677
 20
386508.683603648
 30
7.444
  0
POINT
  5
20055
100
AcDbEntity
  8
0
100
AcDbPoint
 10
174194.35904815
 20
386505.766411403
 30
7.343
  0
POINT
  5
20056
100
AcDbEntity
  8
0
100
AcDbPoint
 10
172930.911030712
 20
386367.873927738
 30
6.171
  0
POINT
  5
20057
100
AcDbEntity
  8
0
100
AcDbPoint
 10
171826.920060596
 20
386411.027385561
 30
16.954
  0
POINT
  5
20058
100
AcDbEntity
  8
0
100
AcDbPoint
 10
171806.792746589
 20
386465.442126845
 30
16.714
  0
POINT
  5
20059
100
AcDbEntity
  8
0
100
AcDbPoint
 10
171741.176445279
 20
386866.150306186
 30
7.834
  0
POINT
  5
2005A
100
AcDbEntity
  8
0
100
AcDbPoint
 10
171736.066080523
 20
386974.195238292
 30
8.27
  0
POINT
  5
2005B
100
AcDbEntity
  8
0
100
AcDbPoint
 10
171732.332876358
 20
387285.355752936
 30
7.681
  0
POINT
  5
2005C
100
AcDbEntity
  8
0
100
AcDbPoint
 10
173000.961585157
 20
388559.113129761
 30
24.803
  0
POINT
  5
2005D
100
AcDbEntity
  8
0
100
AcDbPoint
 10
175080.356940676
 20
387727.053272237
 30
5.502
  0
POINT
  5
2005E
100
AcDbEntity
  8
0
100
AcDbPoint
 10
175342.00238358
 20
387623.926394761
 30
5.959
  0
POINT
  5
2005F
100
AcDbEntity
  8
0
100
AcDbPoint
 10
174594.856742012
 20
386670.948495029
 30
5.675
  0
POINT
  5
20060
100
AcDbEntity
  8
0
100
AcDbPoint
 10
173451.786518454
 20
386394.589058549
 30
6.454
  0
POINT
  5
20061
100
AcDbEntity
  8
0
100
AcDbPoint
 10
173224.066510133
 20
386379.910475523
 30
5.874
  0
POINT
  5
20062
100
AcDbEntity
  8
0
100
AcDbPoint
 10
172755.737671079
 20
386368.558649867
 30
7.306
  0
POINT
  5
20063
100
AcDbEntity
  8
0
100
AcDbPoint
 10
171727.249635818
 20
387401.378748023
 30
7.058
  0
ENDSEC
  0
SECTION
  2
OBJECTS
  0
DICTIONARY
  5
C
330
0
100
AcDbDictionary
281
     1
  3
ACAD_GROUP
350
D
  3
ACAD_LAYOUT
350
1A
  3
ACAD_MLEADERSTYLE
350
43
  3
ACAD_PLOTSETTINGS
350
19
  3
ACAD_PLOTSTYLENAME
350
E
  3
ACAD_TABLESTYLE
350
42
  0
DICTIONARY
  5
D
102
{ACAD_REACTORS
330
C
102
}
330
C
100
AcDbDictionary
281
     1
  0
DICTIONARY
  5
1A
102
{ACAD_REACTORS
330
C
102
}
330
C
100
AcDbDictionary
281
     1
  3
Layout1
350
1E
  3
Model
350
22
  0
DICTIONARY
  5
43
102
{ACAD_REACTORS
330
C
102
}
330
C
100
AcDbDictionary
281
     1
  0
DICTIONARY
  5
19
102
{ACAD_REACTORS
330
C
102
}
330
C
100
AcDbDictionary
281
     1
  0
ACDBDICTIONARYWDFLT
  5
E
102
{ACAD_REACTORS
330
C
102
}
330
C
100
AcDbDictionary
281
     1
  3
Normal
350
F
100
AcDbDictionaryWithDefault
340
F
  0
DICTIONARY
  5
42
102
{ACAD_REACTORS
330
C
102
}
330
C
100
AcDbDictionary
281
     1
  0
LAYOUT
  5
1E
102
{ACAD_REACTORS
330
1A
102
}
330
1A
100
AcDbPlotSettings
  1

  2
none_device
  4

  6

 40
0.0
 41
0.0
 42
0.0
 43
0.0
 44
0.0
 45
0.0
 46
0.0
 47
0.0
 48
0.0
 49
0.0
140
0.0
141
0.0
142
1.0
143
1.0
 70
   688
 72
     0
 73
     0
 74
     5
  7

 75
    16
 76
     0
 77
     2
 78
   300
147
1.0
148
0.0
149
0.0
100
AcDbLayout
  1
Layout1
 70
     1
 71
     1
 10
0.0
 20
0.0
 11
12.0
 21
9.0
 12
0.0
 22
0.0
 32
0.0
 14
1.000000000000000E+20
 24
1.000000000000000E+20
 34
1.000000000000000E+20
 15
-1.000000000000000E+20
 25
-1.000000000000000E+20
 35
-1.000000000000000E+20
146
0.0
 13
0.0
 23
0.0
 33
0.0
 16
1.0
 26
0.0
 36
0.0
 17
0.0
 27
1.0
 37
0.0
 76
     0
330
1B
  0
LAYOUT
  5
22
102
{ACAD_REACTORS
330
1A
102
}
330
1A
100
AcDbPlotSettings
  1

  2
none_device
  4

  6

 40
0.0
 41
0.0
 42
0.0
 43
0.0
 44
0.0
 45
0.0
 46
0.0
 47
0.0
 48
0.0
 49
0.0
140
0.0
141
0.0
142
1.0
143
1.0
 70
  1712
 72
     0
 73
     0
 74
     0
  7

 75
     0
 76
     0
 77
     2
 78
   300
147
1.0
148
0.0
149
0.0
100
AcDbLayout
  1
Model
 70
     1
 71
     0
 10
0.0
 20
0.0
 11
12.0
 21
9.0
 12
0.0
 22
0.0
 32
0.0
 14
30.0
 24
49.75
 34
0.0
 15
130.5
 25
163.1318914119703
 35
0.0
146
0.0
 13
0.0
 23
0.0
 33
0.0
 16
1.0
 26
0.0
 36
0.0
 17
0.0
 27
1.0
 37
0.0
 76
     0
330
1F
331
29
  0
ACDBPLACEHOLDER
  5
F
102
{ACAD_REACTORS
330
E
102
}
330
E
  0
ENDSEC
  0
EOF
